<svg width="437" height="112" viewBox="0 0 437 112" fill="none" xmlns="http://www.w3.org/2000/svg">
<path d="M35.5 48.0167C35.5 48.0167 45.8086 38.6009 53.4856 34.1686C61.1625 29.7363 66.2758 28.8954 74.4711 25.5167C82.6665 22.1379 87.7798 21.297 95.4567 16.8647C103.134 12.4325 113.442 3.01666 113.442 3.01666L133.442 37.6577C133.442 37.6577 123.134 47.0735 115.457 51.5057C107.78 55.938 102.667 56.7789 94.4711 60.1577C86.2758 63.5365 81.1625 64.3773 73.4856 68.8096C65.8086 73.2419 55.5 82.6577 55.5 82.6577L35.5 48.0167Z" fill="url(#paint0_linear_853_207)"/>
<path d="M13.0289 47.5981C13.0289 47.5981 23.3375 38.1823 31.0144 33.75C38.6914 29.3177 43.8046 28.4769 52 25.0981C60.1954 21.7193 65.3086 20.8784 72.9856 16.4462C80.6625 12.0139 90.9711 2.59808 90.9711 2.59808L110.971 37.2391C110.971 37.2391 100.662 46.6549 92.9856 51.0872C85.3086 55.5194 80.1954 56.3603 72 59.7391C63.8046 63.1179 58.6914 63.9587 51.0144 68.391C43.3375 72.8233 33.0289 82.2391 33.0289 82.2391L13.0289 47.5981Z" fill="url(#paint1_linear_853_207)"/>
<path d="M1.5 74.0167C1.5 74.0167 11.8086 64.6009 19.4856 60.1686C27.1625 55.7363 32.2758 54.8954 40.4711 51.5167C48.6665 48.1379 53.7798 47.297 61.4567 42.8647C69.1336 38.4325 79.4423 29.0167 79.4423 29.0167L99.4423 63.6577C99.4423 63.6577 89.1336 73.0735 81.4567 77.5057C73.7798 81.938 68.6665 82.7789 60.4711 86.1577C52.2758 89.5365 47.1625 90.3773 39.4856 94.8096C31.8086 99.2419 21.5 108.658 21.5 108.658L1.5 74.0167Z" fill="url(#paint2_linear_853_207)"/>
<path d="M147 89.8509V21.8618H172.969C180.839 21.8618 186.977 23.777 191.384 27.6074C195.791 31.4378 197.994 36.7364 197.994 43.5034C197.994 48.036 196.987 51.9622 194.972 55.2818C192.958 58.5376 190.093 61.0274 186.379 62.751C182.664 64.4747 178.195 65.3365 172.969 65.3365H159.276V89.8509H147ZM159.276 54.5157H172.403C176.558 54.5157 179.737 53.5901 181.94 51.7387C184.207 49.8874 185.34 47.1423 185.34 43.5034C185.34 39.9284 184.207 37.2472 181.94 35.4596C179.737 33.6083 176.558 32.6826 172.403 32.6826H159.276V54.5157Z" fill="#275396"/>
<path d="M220.853 89.8509C217.202 89.8509 214.274 88.8933 212.071 86.9781C209.867 85.0629 208.766 81.9986 208.766 77.7852V21.8618H220.853V76.5404C220.853 77.8171 221.168 78.7747 221.797 79.4131C222.49 80.0515 223.434 80.3707 224.63 80.3707H228.313V89.8509H220.853Z" fill="#275396"/>
<path d="M251.253 91C245.965 91 241.716 89.7871 238.505 87.3612C235.294 84.8714 233.689 81.4241 233.689 77.0192C233.689 72.6142 235.042 69.1669 237.749 66.6772C240.456 64.1874 244.58 62.3999 250.12 61.3146L266.835 57.9631C266.835 54.3242 266.016 51.611 264.38 49.8235C262.743 47.9722 260.319 47.0465 257.108 47.0465C254.212 47.0465 251.914 47.7487 250.215 49.1532C248.578 50.4938 247.445 52.4409 246.815 54.9945L234.539 54.42C235.546 48.9936 238.001 44.8441 241.904 41.9713C245.808 39.0347 250.876 37.5664 257.108 37.5664C264.285 37.5664 269.699 39.4177 273.351 43.1204C277.065 46.7592 278.922 51.9941 278.922 58.8249V77.4022C278.922 78.7428 279.143 79.6685 279.583 80.1792C280.087 80.6899 280.811 80.9453 281.755 80.9453H283.361V89.8509C282.983 89.9786 282.354 90.0743 281.472 90.1382C280.654 90.202 279.804 90.2339 278.922 90.2339C276.845 90.2339 274.988 89.9147 273.351 89.2763C271.714 88.5741 270.455 87.3931 269.573 85.7332C268.692 84.0096 268.251 81.6794 268.251 78.7428L269.29 79.5089C268.787 81.7433 267.685 83.7542 265.985 85.5417C264.348 87.2654 262.271 88.606 259.752 89.5636C257.234 90.5212 254.401 91 251.253 91ZM253.709 82.0944C256.416 82.0944 258.745 81.5518 260.697 80.4665C262.648 79.3812 264.159 77.881 265.23 75.9658C266.3 74.0506 266.835 71.7843 266.835 69.1669V66.2941L253.803 68.9754C251.096 69.5499 249.144 70.4118 247.948 71.5609C246.815 72.6461 246.248 74.0825 246.248 75.87C246.248 77.8491 246.878 79.3812 248.137 80.4665C249.459 81.5518 251.316 82.0944 253.709 82.0944Z" fill="#275396"/>
<path d="M308.837 89.8509C303.801 89.8509 300.086 88.6699 297.694 86.3078C295.365 83.9457 294.2 80.243 294.2 75.1997V26.7456H306.288V74.0506C306.288 76.4127 306.791 78.0725 307.798 79.0301C308.806 79.9238 310.38 80.3707 312.52 80.3707H319.603V89.8509H308.837ZM286.268 48.1956V38.7155H319.603V48.1956H286.268Z" fill="#275396"/>
<path d="M328.468 89.8509V38.7155H340.555V89.8509H328.468ZM328.279 31.9166V21H340.838V31.9166H328.279Z" fill="#275396"/>
<path d="M370.902 89.8509C365.865 89.8509 362.151 88.6699 359.758 86.3078C357.429 83.9457 356.264 80.243 356.264 75.1997V26.7456H368.352V74.0506C368.352 76.4127 368.856 78.0725 369.863 79.0301C370.87 79.9238 372.444 80.3707 374.584 80.3707H381.667V89.8509H370.902ZM348.332 48.1956V38.7155H381.667V48.1956H348.332Z" fill="#275396"/>
<path d="M404.893 91C399.604 91 395.355 89.7871 392.144 87.3612C388.933 84.8714 387.328 81.4241 387.328 77.0192C387.328 72.6142 388.681 69.1669 391.389 66.6772C394.096 64.1874 398.219 62.3999 403.759 61.3146L420.474 57.9631C420.474 54.3242 419.656 51.611 418.019 49.8235C416.382 47.9722 413.958 47.0465 410.747 47.0465C407.851 47.0465 405.554 47.7487 403.854 49.1532C402.217 50.4938 401.084 52.4409 400.454 54.9945L388.178 54.42C389.185 48.9936 391.64 44.8441 395.544 41.9713C399.447 39.0347 404.515 37.5664 410.747 37.5664C417.924 37.5664 423.339 39.4177 426.99 43.1204C430.704 46.7592 432.562 51.9941 432.562 58.8249V77.4022C432.562 78.7428 432.782 79.6685 433.223 80.1792C433.726 80.6899 434.45 80.9453 435.395 80.9453H437V89.8509C436.622 89.9786 435.993 90.0743 435.111 90.1382C434.293 90.202 433.443 90.2339 432.562 90.2339C430.484 90.2339 428.627 89.9147 426.99 89.2763C425.353 88.5741 424.094 87.3931 423.213 85.7332C422.331 84.0096 421.891 81.6794 421.891 78.7428L422.929 79.5089C422.426 81.7433 421.324 83.7542 419.624 85.5417C417.987 87.2654 415.91 88.606 413.392 89.5636C410.873 90.5212 408.04 91 404.893 91ZM407.348 82.0944C410.055 82.0944 412.384 81.5518 414.336 80.4665C416.288 79.3812 417.798 77.881 418.869 75.9658C419.939 74.0506 420.474 71.7843 420.474 69.1669V66.2941L407.442 68.9754C404.735 69.5499 402.784 70.4118 401.587 71.5609C400.454 72.6461 399.888 74.0825 399.888 75.87C399.888 77.8491 400.517 79.3812 401.776 80.4665C403.098 81.5518 404.956 82.0944 407.348 82.0944Z" fill="#275396"/>
<defs>
<linearGradient id="paint0_linear_853_207" x1="48.4711" y1="73.0167" x2="126.413" y2="28.0167" gradientUnits="userSpaceOnUse">
<stop stop-color="#275396"/>
<stop offset="1" stop-color="#275396" stop-opacity="0"/>
</linearGradient>
<linearGradient id="paint1_linear_853_207" x1="23.0289" y1="64.9186" x2="100.971" y2="19.9186" gradientUnits="userSpaceOnUse">
<stop stop-color="#275396"/>
<stop offset="1" stop-color="#275396" stop-opacity="0"/>
</linearGradient>
<linearGradient id="paint2_linear_853_207" x1="11.5" y1="91.3372" x2="89.4423" y2="46.3372" gradientUnits="userSpaceOnUse">
<stop stop-color="#275396"/>
<stop offset="1" stop-color="#275396" stop-opacity="0"/>
</linearGradient>
</defs>
</svg>
