<svg width="189" height="51" viewBox="0 0 189 51" fill="none" xmlns="http://www.w3.org/2000/svg">
<g clip-path="url(#clip0_846_182)">
<rect x="84" width="105" height="51" rx="4" fill="url(#paint0_linear_846_182)"/>
<path d="M0 50.2941V8.52941H15.9398C20.77 8.52941 24.5376 9.70588 27.2425 12.0588C29.9474 14.4118 31.2999 17.6667 31.2999 21.8235C31.2999 24.6078 30.6816 27.0196 29.4451 29.0588C28.2085 31.0588 26.4503 32.5882 24.1705 33.6471C21.8906 34.7059 19.147 35.2353 15.9398 35.2353H7.53516V50.2941H0ZM7.53516 28.5882H15.592C18.1423 28.5882 20.0938 28.0196 21.4462 26.8824C22.8373 25.7451 23.5329 24.0588 23.5329 21.8235C23.5329 19.6275 22.8373 17.9804 21.4462 16.8824C20.0938 15.7451 18.1423 15.1765 15.592 15.1765H7.53516V28.5882Z" fill="#333333"/>
<path d="M45.3305 50.2941C43.0893 50.2941 41.2924 49.7059 39.94 48.5294C38.5875 47.3529 37.9113 45.4706 37.9113 42.8824V8.52941H45.3305V42.1176C45.3305 42.902 45.5237 43.4902 45.9101 43.8824C46.3352 44.2745 46.9148 44.4706 47.649 44.4706H49.9096V50.2941H45.3305Z" fill="#333333"/>
<path d="M63.99 51C60.7441 51 58.1357 50.2549 56.165 48.7647C54.1943 47.2353 53.2089 45.1176 53.2089 42.4118C53.2089 39.7059 54.0397 37.5882 55.7013 36.0588C57.3629 34.5294 59.8939 33.4314 63.2944 32.7647L73.5538 30.7059C73.5538 28.4706 73.0515 26.8039 72.0468 25.7059C71.0421 24.5686 69.5544 24 67.5837 24C65.8061 24 64.3957 24.4314 63.3524 25.2941C62.3477 26.1176 61.6521 27.3137 61.2657 28.8824L53.7306 28.5294C54.3488 25.1961 55.8559 22.6471 58.2517 20.8824C60.6475 19.0784 63.7581 18.1765 67.5837 18.1765C71.9888 18.1765 75.312 19.3137 77.5533 21.5882C79.8331 23.8235 80.9731 27.0392 80.9731 31.2353V42.6471C80.9731 43.4706 81.1083 44.0392 81.3788 44.3529C81.6879 44.6667 82.1323 44.8235 82.712 44.8235H83.6973V50.2941C83.4655 50.3725 83.079 50.4314 82.5381 50.4706C82.0357 50.5098 81.5141 50.5294 80.9731 50.5294C79.6979 50.5294 78.558 50.3333 77.5533 49.9412C76.5486 49.5098 75.7757 48.7843 75.2348 47.7647C74.6938 46.7059 74.4233 45.2745 74.4233 43.4706L75.0609 43.9412C74.7517 45.3137 74.0755 46.549 73.0322 47.6471C72.0275 48.7059 70.7523 49.5294 69.2066 50.1176C67.661 50.7059 65.9221 51 63.99 51ZM65.497 45.5294C67.1586 45.5294 68.5884 45.1961 69.7863 44.5294C70.9842 43.8627 71.9116 42.9412 72.5685 41.7647C73.2254 40.5882 73.5538 39.1961 73.5538 37.5882V35.8235L65.555 37.4706C63.8934 37.8235 62.6955 38.3529 61.9613 39.0588C61.2657 39.7255 60.918 40.6078 60.918 41.7059C60.918 42.9216 61.3044 43.8627 62.0772 44.5294C62.8887 45.1961 64.0286 45.5294 65.497 45.5294Z" fill="#333333"/>
<path d="M99.3346 50.2941C96.2432 50.2941 93.9634 49.5686 92.495 48.1176C91.0652 46.6667 90.3504 44.3922 90.3504 41.2941V11.5294H97.7696V40.5882C97.7696 42.0392 98.0787 43.0588 98.697 43.6471C99.3153 44.1961 100.281 44.4706 101.595 44.4706H105.942V50.2941H99.3346ZM85.4815 24.7059V18.8824H105.942V24.7059H85.4815Z" fill="#333333"/>
<path d="M111.384 50.2941V18.8824H118.803V50.2941H111.384ZM111.268 14.7059V8H118.977V14.7059H111.268Z" fill="#333333"/>
<path d="M137.429 50.2941C134.338 50.2941 132.058 49.5686 130.59 48.1176C129.16 46.6667 128.445 44.3922 128.445 41.2941V11.5294H135.864V40.5882C135.864 42.0392 136.173 43.0588 136.792 43.6471C137.41 44.1961 138.376 44.4706 139.69 44.4706H144.037V50.2941H137.429ZM123.576 24.7059V18.8824H144.037V24.7059H123.576Z" fill="#333333"/>
<path d="M158.293 51C155.047 51 152.438 50.2549 150.468 48.7647C148.497 47.2353 147.512 45.1176 147.512 42.4118C147.512 39.7059 148.342 37.5882 150.004 36.0588C151.666 34.5294 154.197 33.4314 157.597 32.7647L167.857 30.7059C167.857 28.4706 167.354 26.8039 166.349 25.7059C165.345 24.5686 163.857 24 161.886 24C160.109 24 158.698 24.4314 157.655 25.2941C156.65 26.1176 155.955 27.3137 155.568 28.8824L148.033 28.5294C148.652 25.1961 150.159 22.6471 152.554 20.8824C154.95 19.0784 158.061 18.1765 161.886 18.1765C166.292 18.1765 169.615 19.3137 171.856 21.5882C174.136 23.8235 175.276 27.0392 175.276 31.2353V42.6471C175.276 43.4706 175.411 44.0392 175.681 44.3529C175.991 44.6667 176.435 44.8235 177.015 44.8235H178V50.2941C177.768 50.3725 177.382 50.4314 176.841 50.4706C176.338 50.5098 175.817 50.5294 175.276 50.5294C174.001 50.5294 172.861 50.3333 171.856 49.9412C170.851 49.5098 170.078 48.7843 169.537 47.7647C168.996 46.7059 168.726 45.2745 168.726 43.4706L169.364 43.9412C169.054 45.3137 168.378 46.549 167.335 47.6471C166.33 48.7059 165.055 49.5294 163.509 50.1176C161.964 50.7059 160.225 51 158.293 51ZM159.8 45.5294C161.461 45.5294 162.891 45.1961 164.089 44.5294C165.287 43.8627 166.214 42.9412 166.871 41.7647C167.528 40.5882 167.857 39.1961 167.857 37.5882V35.8235L159.858 37.4706C158.196 37.8235 156.998 38.3529 156.264 39.0588C155.568 39.7255 155.221 40.6078 155.221 41.7059C155.221 42.9216 155.607 43.8627 156.38 44.5294C157.191 45.1961 158.331 45.5294 159.8 45.5294Z" fill="#333333"/>
</g>
<defs>
<linearGradient id="paint0_linear_846_182" x1="189" y1="25.0364" x2="84.0372" y2="23.0596" gradientUnits="userSpaceOnUse">
<stop stop-color="#6EB379"/>
<stop offset="1" stop-color="#6EB379" stop-opacity="0"/>
</linearGradient>
<clipPath id="clip0_846_182">
<rect width="189" height="51" fill="white"/>
</clipPath>
</defs>
</svg>
