<svg width="132" height="107" viewBox="0 0 132 107" fill="none" xmlns="http://www.w3.org/2000/svg">
<path d="M34 45.4186C34 45.4186 44.3086 36.0028 51.9856 31.5705C59.6625 27.1382 64.7758 26.2974 72.9711 22.9186C81.1665 19.5398 86.2798 18.6989 93.9567 14.2667C101.634 9.83438 111.942 0.418579 111.942 0.418579L131.942 35.0596C131.942 35.0596 121.634 44.4754 113.957 48.9077C106.28 53.3399 101.167 54.1808 92.9711 57.5596C84.7758 60.9384 79.6625 61.7792 71.9856 66.2115C64.3086 70.6438 54 80.0596 54 80.0596L34 45.4186Z" fill="url(#paint0_linear_853_214)"/>
<path d="M11.5289 45C11.5289 45 21.8375 35.5842 29.5144 31.1519C37.1914 26.7196 42.3046 25.8788 50.5 22.5C58.6954 19.1212 63.8086 18.2804 71.4856 13.8481C79.1625 9.4158 89.4711 0 89.4711 0L109.471 34.641C109.471 34.641 99.1625 44.0568 91.4856 48.4891C83.8086 52.9214 78.6954 53.7622 70.5 57.141C62.3046 60.5198 57.1914 61.3607 49.5144 65.7929C41.8375 70.2252 31.5289 79.641 31.5289 79.641L11.5289 45Z" fill="url(#paint1_linear_853_214)"/>
<path d="M0 71.4186C0 71.4186 10.3086 62.0028 17.9856 57.5705C25.6625 53.1382 30.7758 52.2974 38.9711 48.9186C47.1665 45.5398 52.2798 44.6989 59.9567 40.2667C67.6336 35.8344 77.9423 26.4186 77.9423 26.4186L97.9423 61.0596C97.9423 61.0596 87.6336 70.4754 79.9567 74.9077C72.2798 79.3399 67.1665 80.1808 58.9711 83.5596C50.7758 86.9384 45.6625 87.7792 37.9856 92.2115C30.3086 96.6438 20 106.06 20 106.06L0 71.4186Z" fill="url(#paint2_linear_853_214)"/>
<defs>
<linearGradient id="paint0_linear_853_214" x1="-1.85696" y1="71.789" x2="130.085" y2="71.789" gradientUnits="userSpaceOnUse">
<stop stop-color="#275396"/>
<stop offset="1" stop-color="#275396" stop-opacity="0"/>
</linearGradient>
<linearGradient id="paint1_linear_853_214" x1="0" y1="53.0298" x2="131.942" y2="53.0298" gradientUnits="userSpaceOnUse">
<stop stop-color="#275396"/>
<stop offset="1" stop-color="#275396" stop-opacity="0"/>
</linearGradient>
<linearGradient id="paint2_linear_853_214" x1="10" y1="88.7391" x2="87.9423" y2="43.7391" gradientUnits="userSpaceOnUse">
<stop stop-color="#275396"/>
<stop offset="1" stop-color="#275396" stop-opacity="0"/>
</linearGradient>
</defs>
</svg>
