<svg width="51" height="51" viewBox="0 0 51 51" fill="none" xmlns="http://www.w3.org/2000/svg">
<g clip-path="url(#clip0_850_176)">
<rect width="51" height="51" rx="4" fill="url(#paint0_linear_850_176)"/>
<path d="M0 50.2941V8.52942H15.9398C20.77 8.52942 24.5376 9.70589 27.2425 12.0588C29.9474 14.4118 31.2999 17.6667 31.2999 21.8235C31.2999 24.6079 30.6816 27.0196 29.4451 29.0588C28.2085 31.0588 26.4503 32.5882 24.1705 33.6471C21.8906 34.7059 19.147 35.2353 15.9398 35.2353H7.53516V50.2941H0ZM7.53516 28.5882H15.592C18.1423 28.5882 20.0938 28.0196 21.4462 26.8824C22.8373 25.7451 23.5329 24.0588 23.5329 21.8235C23.5329 19.6275 22.8373 17.9804 21.4462 16.8824C20.0938 15.7451 18.1423 15.1765 15.592 15.1765H7.53516V28.5882Z" fill="black"/>
</g>
<defs>
<linearGradient id="paint0_linear_850_176" x1="51" y1="25.0364" x2="0.00426422" y2="24.5699" gradientUnits="userSpaceOnUse">
<stop stop-color="#275396"/>
<stop offset="1" stop-color="#275396" stop-opacity="0"/>
</linearGradient>
<clipPath id="clip0_850_176">
<rect width="51" height="51" fill="white"/>
</clipPath>
</defs>
</svg>
